<?xml version="1.0" standalone="no"?>
<!DOCTYPE svg PUBLIC "-//W3C//DTD SVG 20010904//EN"
 "http://www.w3.org/TR/2001/REC-SVG-20010904/DTD/svg10.dtd">
<svg version="1.0" xmlns="http://www.w3.org/2000/svg"
 width="238.000000pt" height="212.000000pt" viewBox="0 0 238.000000 212.000000"
 preserveAspectRatio="xMidYMid meet">

<g transform="translate(0.000000,212.000000) scale(0.100000,-0.100000)"
fill="#000000" stroke="none">
<path d="M1090 1700 c-71 -24 -155 -110 -172 -176 l-12 -44 -151 0 -150 0 0
-540 0 -541 440 3 440 3 65 32 c102 51 167 121 200 217 18 51 20 85 21 418 0
200 0 373 0 386 -1 22 -2 22 -150 22 l-149 0 -6 34 c-9 47 -59 118 -106 151
-83 57 -172 69 -270 35z m194 -76 c44 -23 75 -53 97 -96 26 -51 24 -56 -18
-63 -21 -4 -69 -15 -106 -26 -68 -20 -69 -20 -125 0 -31 10 -79 22 -105 26
-43 7 -47 10 -41 29 19 65 87 129 158 147 40 10 100 3 140 -17z m-271 -204
c37 -6 93 -21 126 -34 52 -21 60 -22 85 -9 15 8 34 12 42 9 8 -3 13 -2 10 3
-7 11 48 23 69 15 8 -4 22 -1 30 6 9 8 28 10 51 5 24 -4 34 -3 29 4 -4 8 38
11 135 11 l141 0 -3 -362 -3 -363 -27 -59 c-18 -38 -33 -56 -41 -53 -8 3 -14
-1 -14 -9 0 -7 5 -11 11 -8 6 3 -11 -15 -37 -40 -27 -25 -73 -55 -105 -68 -55
-22 -68 -22 -459 -25 l-403 -3 0 495 0 495 148 0 c81 0 177 -5 215 -10z"/>
<path d="M1428 1313 c7 -3 16 -2 19 1 4 3 -2 6 -13 5 -11 0 -14 -3 -6 -6z"/>
<path d="M1355 1299 c3 -4 -10 -15 -28 -24 -19 -9 -49 -31 -67 -50 -40 -41
-64 -47 -29 -7 l24 27 -27 -24 c-19 -17 -25 -28 -18 -36 7 -8 4 -17 -9 -29
-18 -17 -20 -16 -26 3 -10 31 -76 92 -123 113 -110 49 -220 29 -307 -55 -43
-42 -57 -64 -70 -111 -38 -132 18 -266 137 -327 51 -26 153 -36 199 -20 33 11
34 11 108 -63 l74 -74 71 75 c70 73 71 74 103 63 19 -7 60 -9 100 -6 95 7 110
10 119 19 5 4 0 5 -11 2 -16 -6 -17 -5 -5 3 8 7 19 7 25 2 12 -10 43 5 32 16
-8 8 21 44 34 44 5 0 6 -8 3 -17 -5 -15 -4 -16 5 -3 6 9 7 18 1 24 -6 6 -3 17
8 30 25 28 42 92 42 154 0 67 -36 147 -85 190 -25 23 -38 42 -39 62 0 20 -5
26 -15 22 -12 -4 -12 -7 -2 -10 11 -4 11 -6 0 -12 -7 -5 -29 -2 -48 5 -40 15
-183 27 -176 14z m-318 -70 c114 -55 160 -195 102 -310 -44 -88 -157 -141
-250 -119 -215 52 -244 337 -44 431 55 25 137 25 192 -2z m514 -7 c42 -21 62
-40 87 -82 31 -51 33 -60 30 -127 -3 -61 -8 -78 -33 -115 -17 -23 -52 -56 -79
-72 -61 -38 -148 -41 -212 -8 -93 48 -144 151 -123 250 31 152 191 227 330
154z m-347 -344 c6 -5 1 -8 -11 -8 -25 0 -26 1 -16 26 5 14 8 15 11 3 3 -7 10
-17 16 -21z m54 -68 c17 -11 32 -23 32 -27 -1 -5 -23 -32 -50 -62 l-50 -54
-27 30 c-79 84 -77 81 -62 99 31 38 107 45 157 14z"/>
<path d="M976 1132 c12 -62 -71 -108 -118 -65 -23 20 -28 15 -35 -34 -10 -77
42 -143 123 -159 41 -8 116 25 139 60 25 38 31 106 11 143 -21 41 -72 83 -102
83 -20 0 -23 -4 -18 -28z"/>
<path d="M1425 1132 c14 -66 -71 -108 -121 -61 l-23 21 -6 -36 c-16 -80 16
-142 87 -171 97 -39 198 30 198 135 0 61 -66 140 -117 140 -22 0 -24 -3 -18
-28z"/>
<path d="M1190 1169 c0 -5 5 -7 10 -4 6 3 10 8 10 11 0 2 -4 4 -10 4 -5 0 -10
-5 -10 -11z"/>
<path d="M1711 884 c0 -11 3 -14 6 -6 3 7 2 16 -1 19 -3 4 -6 -2 -5 -13z"/>
<path d="M1640 770 c0 -5 5 -10 11 -10 5 0 7 5 4 10 -3 6 -8 10 -11 10 -2 0
-4 -4 -4 -10z"/>
<path d="M1680 745 c0 -8 2 -15 4 -15 2 0 6 7 10 15 3 8 1 15 -4 15 -6 0 -10
-7 -10 -15z"/>
<path d="M1600 550 c0 -5 5 -10 11 -10 5 0 7 5 4 10 -3 6 -8 10 -11 10 -2 0
-4 -4 -4 -10z"/>
</g>
</svg>
